<?xml version="1.0" standalone="no"?>
<!DOCTYPE svg PUBLIC "-//W3C//DTD SVG 20010904//EN"
 "http://www.w3.org/TR/2001/REC-SVG-20010904/DTD/svg10.dtd">
<svg version="1.0" xmlns="http://www.w3.org/2000/svg"
 width="1920.000000pt" height="1080.000000pt" viewBox="0 0 1920.000000 1080.000000"
 preserveAspectRatio="xMidYMid meet">
<metadata>
Created by potrace 1.16, written by Peter Selinger 2001-2019
</metadata>
<g transform="translate(0.000000,1080.000000) scale(0.100000,-0.100000)"
fill="#000000" stroke="none">
<path d="M0 5400 l0 -5400 9600 0 9600 0 0 1495 c0 1322 -2 1495 -15 1495 -8
0 -15 -4 -15 -9 0 -20 -50 -357 -55 -370 -4 -11 -14 -4 -36 22 -17 20 -39 37
-49 37 -32 0 -47 27 -59 107 -43 302 -61 447 -71 578 -20 280 -30 345 -56 397
-13 26 -28 48 -33 48 -8 0 -51 -144 -51 -172 0 -8 -13 -40 -30 -71 -16 -31
-30 -64 -30 -73 0 -36 -11 -3 -40 113 -45 185 -52 271 -55 628 -1 203 -6 357
-14 400 -13 76 -75 283 -97 327 -7 14 -39 120 -69 235 -47 175 -67 232 -129
363 -41 85 -76 163 -79 172 -3 9 -20 24 -37 33 -28 15 -31 14 -37 -2 -3 -10
-17 -45 -30 -78 -45 -115 -58 -211 -47 -364 6 -76 7 -169 3 -207 -8 -76 -65
-231 -104 -284 -30 -40 -95 -89 -136 -100 -54 -16 -200 15 -304 64 -49 24
-119 53 -155 66 -36 13 -90 40 -121 61 l-56 37 -94 -27 c-52 -15 -104 -33
-117 -40 -18 -10 -34 -10 -77 0 -71 16 -73 18 -77 64 -3 38 -2 40 34 49 49 12
55 32 63 223 7 146 6 153 -15 188 -27 44 -60 163 -60 217 0 55 -15 78 -50 78
l-30 0 0 143 0 144 30 -5 c25 -4 31 0 40 23 20 52 23 138 6 160 -12 16 -18 18
-33 9 -10 -6 -20 -20 -21 -30 -2 -10 -8 -23 -13 -28 -5 -6 -9 28 -9 85 0 94 0
94 30 111 20 11 28 22 24 32 -7 20 14 21 38 2 19 -14 119 -6 141 12 7 5 27 13
44 17 41 8 45 15 31 53 -10 27 -9 34 7 52 11 12 44 34 74 48 29 15 58 37 64
49 6 13 13 23 17 23 3 0 34 19 69 43 96 63 103 67 149 67 34 0 42 -3 42 -18 0
-18 -45 -66 -88 -93 -12 -8 -39 -42 -60 -76 -25 -43 -59 -79 -105 -115 -66
-51 -70 -56 -95 -132 -25 -76 -25 -79 -7 -92 54 -39 252 6 353 80 33 24 75 52
93 61 67 35 285 105 327 105 45 0 127 -35 152 -65 18 -22 84 -55 111 -55 27 0
116 25 201 57 104 38 121 64 202 300 34 102 73 194 110 258 64 114 100 218
111 320 5 55 11 74 28 87 21 16 22 25 23 175 0 87 4 237 8 333 7 159 6 186
-14 295 -18 96 -22 146 -19 250 8 269 0 415 -21 415 -22 0 -35 -123 -35 -330
0 -190 -2 -219 -18 -243 -11 -17 -26 -27 -41 -27 -21 0 -24 6 -31 55 -3 30 -3
117 0 192 8 160 -4 294 -40 455 -41 186 -55 302 -62 518 -9 329 14 461 96 549
37 40 60 39 122 -4 28 -19 55 -35 60 -35 14 0 53 86 88 192 18 54 37 101 43
104 5 3 21 -4 34 -17 17 -16 35 -23 54 -21 34 4 30 21 60 -258 27 -254 30
-270 46 -270 12 0 14 88 14 533 l0 534 -47 9 c-42 8 -48 12 -51 37 l-3 27
-2215 0 c-1469 0 -2214 -3 -2214 -10 0 -6 44 -10 113 -10 61 0 274 -5 472 -11
198 -6 819 -12 1380 -13 1056 -1 1098 -3 1028 -39 -78 -41 -292 -47 -758 -21
-433 24 -1412 9 -1753 -27 -62 -7 -109 -15 -105 -19 4 -4 82 -13 173 -19 91
-6 182 -14 203 -17 l39 -6 -21 -22 c-50 -54 -21 -75 155 -112 74 -16 134 -32
134 -36 0 -18 -50 -28 -226 -47 -224 -24 -657 -58 -1364 -105 -875 -59 -914
-61 -1630 -61 -826 0 -753 -5 -1795 134 -606 82 -679 97 -669 138 9 33 -26 51
-116 62 -65 8 -655 51 -704 51 -5 0 -7 2 -5 5 3 2 68 9 144 15 77 5 156 13
175 16 l35 6 -35 14 c-19 8 -82 19 -140 25 -183 18 -191 23 -70 42 69 11 256
23 543 34 240 9 437 21 437 25 0 4 -2320 8 -5155 8 l-5155 0 0 -5400z m18354
4567 c15 -18 35 -48 43 -67 21 -48 20 -156 -3 -260 -13 -59 -18 -119 -16 -195
3 -218 -25 -387 -79 -476 -27 -42 -35 -49 -63 -49 -27 0 -43 11 -90 60 -111
116 -136 234 -92 427 21 92 26 137 26 255 0 130 2 148 24 193 25 53 81 112
131 139 41 21 84 12 119 -27z m-15419 -1288 c178 -21 295 -54 295 -84 0 -25
-77 -102 -156 -155 -128 -85 -129 -85 -599 -85 -434 0 -467 3 -446 44 19 34
212 197 271 227 57 30 173 59 265 68 57 5 264 -3 370 -15z m8307 -5 c26 -14
68 -59 68 -75 0 -25 68 -111 124 -157 69 -56 110 -75 191 -87 27 -4 63 -14 79
-22 l30 -16 -23 -18 c-13 -11 -29 -19 -36 -19 -7 0 -23 -21 -35 -46 -20 -41
-21 -50 -10 -83 7 -21 10 -46 8 -57 -9 -48 -195 1 -219 58 -6 16 -26 38 -43
50 -37 26 -66 57 -66 71 0 5 -10 22 -22 37 -55 70 -88 118 -88 130 0 13 -21
38 -96 114 -28 29 -62 111 -50 123 23 24 139 22 188 -3z m-340 -36 c15 -10 34
-28 43 -40 9 -13 41 -57 72 -98 30 -41 60 -86 67 -100 6 -14 30 -50 53 -80 90
-116 213 -298 242 -355 46 -93 50 -128 45 -395 -4 -241 -10 -345 -35 -647
l-12 -152 -37 3 c-21 2 -43 7 -51 12 -7 4 -32 9 -56 10 -33 2 -47 -3 -67 -23
-15 -14 -26 -29 -26 -33 0 -15 152 -60 203 -60 20 0 39 -5 42 -10 5 -8 -22 -9
-84 -4 -99 7 -105 4 -70 -40 15 -20 25 -24 32 -17 18 18 24 13 36 -35 13 -50
4 -74 -29 -74 -18 0 -105 -54 -117 -72 -4 -7 -1 -8 8 -3 8 4 3 -4 -11 -18 -14
-14 -38 -27 -55 -28 -16 -2 -34 -6 -40 -10 -29 -19 -118 -40 -144 -34 -16 3
-32 2 -35 -3 -3 -5 -16 -7 -30 -5 -13 3 -27 0 -30 -6 -4 -7 -15 -7 -31 -1 -18
7 -25 5 -29 -7 -4 -9 -9 -13 -12 -10 -7 7 23 52 34 52 4 0 6 8 5 18 -2 10 0
16 5 14 4 -2 18 9 31 26 l25 30 -32 -5 c-40 -6 -32 8 11 17 77 17 168 94 251
213 36 53 37 55 27 104 -8 35 -8 69 -1 115 15 93 15 898 0 955 -26 98 -170
519 -194 566 -30 60 -84 107 -148 130 -27 9 -48 19 -48 22 0 3 24 3 54 0 53
-6 54 -5 52 18 -2 13 -9 28 -17 33 -10 6 -8 9 11 10 l25 0 -22 11 c-13 6 -23
14 -23 17 0 14 88 5 112 -11z m-484 -129 c-4 -12 -38 -32 -86 -50 l-33 -12 28
-17 c15 -9 45 -19 67 -23 21 -3 41 -9 44 -12 3 -3 7 -119 8 -258 2 -227 11
-749 19 -1090 3 -103 1 -127 -10 -123 -18 7 -27 -5 -15 -20 11 -13 13 -12 -82
-17 -49 -3 -98 -23 -98 -41 0 -6 -16 -24 -35 -39 -19 -15 -35 -32 -35 -36 0
-5 66 -8 148 -7 123 2 152 6 179 22 17 10 35 16 38 12 11 -11 -5 -28 -26 -28
-27 0 -24 -22 12 -80 17 -28 29 -53 26 -56 -2 -3 -20 21 -39 53 -27 46 -39 58
-58 58 -20 0 -26 -6 -28 -26 -3 -22 -9 -28 -41 -33 -21 -3 -45 -13 -52 -23
-13 -15 -9 -16 43 -10 l58 6 18 -42 c16 -36 20 -85 28 -337 5 -162 9 -374 9
-470 0 -96 3 -180 8 -187 4 -6 3 -23 -3 -37 -6 -17 -6 -27 2 -32 7 -5 5 -11
-6 -20 -11 -8 -15 -18 -10 -26 4 -7 9 -19 10 -28 0 -8 5 -33 9 -54 6 -28 5
-37 -4 -32 -7 5 -11 -1 -11 -13 0 -12 4 -21 8 -21 4 0 6 -16 4 -35 -3 -21 0
-35 7 -35 6 0 8 -7 5 -15 -17 -43 -34 -3 -64 150 -16 78 -34 132 -61 186 -42
80 -69 104 -182 161 -26 14 -45 27 -42 30 7 6 114 -49 171 -87 20 -14 40 -25
43 -25 3 0 14 -20 24 -45 22 -52 42 -49 34 5 -3 27 1 48 15 70 17 29 18 34 4
49 -9 10 -16 27 -16 38 0 12 -6 23 -12 26 -10 3 -10 8 1 21 11 13 11 20 2 29
-8 8 -14 8 -19 2 -9 -13 -23 -16 -101 -20 -36 -1 -88 -10 -116 -18 -48 -15
-51 -14 -67 5 -22 25 -24 68 -3 68 11 0 15 10 14 33 -1 23 -3 26 -6 10 -5 -24
-23 -32 -24 -10 0 6 -2 31 -5 55 -4 33 -2 42 8 40 8 -2 15 0 16 5 5 18 1 26
-13 21 -11 -5 -15 2 -16 27 0 19 -2 57 -4 84 -12 170 -16 226 -25 368 -5 87
-12 163 -16 168 -3 5 3 25 14 43 11 18 23 49 27 67 4 19 12 40 18 47 9 12 15
38 18 82 2 22 -10 258 -15 310 -13 131 -19 223 -31 465 -4 77 -8 156 -10 175
-2 19 -6 95 -10 168 l-7 133 29 -6 28 -6 -22 19 c-24 21 -30 42 -13 42 5 0 16
15 24 34 8 18 19 37 25 40 5 4 8 12 6 19 -3 7 11 23 30 36 19 13 52 39 72 59
21 19 56 43 78 53 44 21 99 25 93 8z m-2756 -505 l3 -240 -27 -32 c-24 -28
-68 -47 -53 -23 3 6 -4 15 -15 21 -13 7 -20 7 -20 0 0 -5 -7 -10 -16 -10 -11
0 -14 -5 -10 -16 8 -20 -11 -44 -33 -43 -10 0 -7 4 9 11 l25 10 -22 10 c-17 8
-26 6 -44 -11 -13 -11 -29 -21 -36 -21 -18 0 -16 -27 3 -34 9 -3 32 -6 52 -6
19 0 43 -7 53 -16 17 -15 45 -11 34 6 -6 9 18 20 46 20 10 0 36 9 58 21 52 27
69 22 42 -12 -11 -14 -23 -39 -27 -55 -17 -69 -23 -486 -18 -1269 4 -765 3
-838 -11 -820 -12 15 -14 32 -9 70 7 58 7 51 5 90 -3 60 -39 74 -44 16 -1 -14
-8 -21 -22 -21 -19 0 -19 -1 3 -18 18 -14 20 -20 10 -31 -8 -8 -8 -11 -2 -8
12 7 29 -21 19 -31 -3 -3 -5 0 -5 6 0 7 -4 12 -10 12 -5 0 -10 -6 -10 -14 0
-9 -9 -14 -22 -14 -13 1 -38 1 -57 0 -32 -2 -33 -3 -19 -19 9 -10 13 -23 11
-30 -5 -14 95 -94 175 -140 64 -37 60 -41 -13 -14 -63 22 -101 44 -178 102
-86 64 -111 94 -102 116 5 10 7 23 6 28 -7 26 -7 256 -1 260 8 5 6 97 -2 111
-5 8 -4 71 2 84 1 3 1 10 0 15 -5 20 1 1501 6 1531 3 18 1 35 -5 38 -17 11
-13 29 14 59 14 15 22 27 18 27 -12 0 -14 38 -2 45 5 4 9 2 9 -4 0 -6 7 -8 15
-5 21 8 19 21 -5 27 -20 5 -20 6 -3 41 14 29 23 36 40 33 13 -2 24 2 28 11 4
10 9 11 18 4 10 -9 16 -4 24 19 6 16 7 27 2 23 -5 -3 -9 0 -9 5 0 17 -32 13
-46 -6 -19 -27 -29 -7 -11 21 9 13 26 52 37 87 23 70 95 210 113 221 7 4 15 7
19 5 4 -1 9 -110 10 -243z m5856 -96 l-3 -311 -45 -25 c-72 -39 -107 -46 -127
-26 -16 15 -18 15 -30 -2 -7 -10 -13 -27 -13 -38 -1 -21 -1 -21 -16 -1 -23 30
-14 72 72 335 102 314 128 380 151 380 11 0 13 -56 11 -312z m-8975 255 c3 -5
-37 -64 -89 -132 l-93 -124 5 -737 4 -737 -40 3 c-22 1 -42 -2 -46 -7 -3 -5
-15 -7 -25 -4 -11 4 -25 2 -32 -3 -7 -6 -28 -13 -48 -17 -25 -5 -36 -12 -35
-23 0 -9 -9 -21 -21 -27 -13 -5 -23 -13 -23 -17 0 -5 -11 -18 -25 -30 -24 -21
-34 -48 -17 -48 4 0 13 5 20 12 9 9 12 9 12 -1 0 -10 16 -11 68 -6 37 3 78 9
91 12 20 5 23 3 18 -11 -4 -10 -1 -16 8 -16 18 0 20 -16 3 -24 -7 -3 1 -3 17
-1 28 5 31 3 30 -22 0 -24 4 -28 30 -31 23 -2 42 6 75 32 70 56 72 42 3 -20
l-63 -56 0 -574 c0 -376 -3 -574 -10 -574 -5 0 -10 -25 -10 -55 0 -37 4 -55
13 -55 8 0 7 -4 -3 -10 -13 -9 -13 -11 0 -21 11 -8 12 -12 3 -16 -7 -2 -13 -9
-13 -14 0 -6 6 -7 13 -3 9 6 9 5 1 -7 -14 -16 -16 -69 -3 -69 11 0 7 -23 -6
-32 -5 -4 -4 -17 5 -33 11 -21 12 -32 1 -61 -10 -29 -10 -38 1 -51 7 -9 8 -14
3 -11 -7 4 -10 -30 -10 -99 0 -58 -3 -107 -7 -109 -4 -3 -5 -11 -2 -19 4 -8
10 -12 15 -9 5 3 9 0 9 -5 0 -6 -4 -11 -9 -11 -4 0 -7 -79 -7 -176 2 -167 1
-176 -19 -186 -11 -6 -23 -16 -27 -22 -5 -8 -11 -7 -20 2 -9 9 -9 12 3 12 16
0 52 33 45 41 -2 2 -7 31 -10 63 -3 33 -11 63 -18 68 -10 6 -10 8 0 8 9 0 12
13 10 43 -3 37 -6 42 -27 42 -19 0 -31 -13 -57 -62 -18 -35 -36 -79 -40 -98
-5 -31 -4 -35 14 -35 15 0 19 5 15 20 -4 14 0 20 11 20 9 0 16 -5 16 -12 0
-17 -31 -48 -49 -48 -23 -1 17 -30 41 -30 10 0 18 -4 18 -10 0 -5 -4 -10 -10
-10 -5 0 -9 -6 -7 -12 4 -21 -56 -11 -75 13 -11 12 -24 19 -33 15 -20 -7 -19
-26 2 -26 15 0 14 -2 -3 -14 -12 -10 -38 -14 -71 -12 -29 2 -53 -1 -53 -6 0
-5 5 -6 10 -3 6 3 10 2 10 -4 0 -9 111 -91 123 -91 9 0 125 -80 137 -95 7 -8
16 -15 21 -15 17 0 133 -74 122 -77 -10 -4 -84 37 -238 132 -60 37 -150 100
-153 108 -2 4 -9 7 -17 7 -18 0 -38 27 -29 41 7 12 7 32 -3 161 -3 38 0 75 6
85 9 15 10 11 11 -20 0 -44 20 -70 47 -60 16 6 16 5 4 -10 -8 -10 -11 -20 -7
-24 19 -19 29 55 11 87 -8 14 -14 19 -15 11 0 -11 -3 -11 -15 -1 -13 11 -13
15 -3 22 9 5 10 10 2 16 -6 4 -10 21 -9 37 2 27 4 30 33 27 21 -2 32 1 32 9 0
7 -3 9 -7 6 -3 -4 -12 -2 -19 3 -6 6 -16 10 -20 9 -5 -1 -20 -1 -34 0 -25 2
-25 2 -2 11 24 10 31 56 9 62 -9 2 -8 8 5 21 17 16 18 16 18 -11 0 -17 8 -32
23 -41 20 -13 21 -13 9 1 -7 9 -17 30 -22 47 -7 24 -5 33 7 39 11 7 13 14 5
28 -5 10 -7 24 -5 31 2 7 0 20 -6 30 -9 15 -10 13 -11 -15 0 -20 -4 -31 -10
-27 -5 3 -10 17 -10 31 0 14 -4 22 -10 19 -6 -4 -10 12 -10 42 0 35 3 44 10
33 7 -11 10 -7 10 19 0 29 2 32 15 21 9 -8 15 -9 15 -2 0 6 -5 14 -10 17 -6 4
-7 12 -4 18 4 7 4 9 -1 5 -4 -4 -14 -1 -21 7 -18 18 -18 25 1 25 8 0 15 3 15
8 1 4 5 26 9 50 5 23 4 42 0 42 -17 0 -9 20 9 21 11 1 9 4 -8 9 -14 4 -19 8
-12 9 7 1 12 7 10 14 -1 6 3 23 10 37 11 21 11 22 0 9 -29 -35 -43 -29 -46 20
-1 25 1 62 4 81 7 34 7 34 14 10 7 -23 8 -23 9 8 1 18 -3 31 -8 28 -11 -7 -21
18 -21 55 0 20 5 29 16 29 9 0 14 6 12 13 -3 6 -2 39 2 72 4 33 3 71 -2 85 -7
21 -7 20 -3 -7 2 -18 0 -33 -5 -33 -4 0 -11 -8 -13 -17 -2 -10 -4 21 -5 69 0
58 5 93 14 105 17 23 18 34 1 27 -20 -7 -16 234 4 247 10 6 10 9 2 9 -7 0 -13
5 -13 11 0 5 5 7 10 4 6 -4 10 7 10 25 0 17 -4 29 -9 26 -5 -3 -9 36 -10 87
-1 50 -3 101 -4 112 -1 15 3 19 17 17 18 -3 18 -2 2 13 -17 18 -23 50 -6 40 6
-3 10 -1 10 4 0 6 -4 11 -10 11 -13 0 -8 343 5 352 6 5 6 8 -1 8 -17 0 -19
110 -15 1095 0 132 1 287 1 345 0 58 4 100 8 94 5 -8 24 3 57 32 33 29 44 44
32 44 -9 0 -17 -4 -17 -10 0 -6 -10 -5 -25 2 -18 8 -22 14 -13 19 7 4 15 6 19
3 4 -2 10 3 13 12 3 8 10 12 16 9 6 -4 7 -11 4 -17 -5 -7 -1 -9 9 -5 10 4 17
1 17 -5 0 -17 11 -3 14 19 2 10 9 18 17 18 8 0 17 4 20 9 4 5 19 10 35 12 16
1 34 10 41 19 14 21 109 66 118 57 3 -4 9 -1 13 5 19 31 142 67 155 46z m1890
-263 c2 -41 10 -119 17 -173 7 -53 10 -100 7 -103 -4 -4 -14 -1 -23 6 -13 11
-17 11 -24 1 -4 -8 -30 -15 -56 -16 -27 -1 -57 -3 -66 -4 -10 0 -15 -7 -13
-14 4 -8 -5 -12 -27 -12 -38 0 -51 -28 -23 -49 10 -7 18 -25 18 -39 0 -15 3
-27 8 -27 5 0 9 4 9 8 0 10 27 8 53 -3 19 -8 134 -1 175 11 12 4 22 2 22 -4 0
-9 -15 -16 -70 -32 -15 -5 -18 -8 -8 -9 18 -1 34 -53 23 -71 -4 -6 -2 -17 4
-24 9 -10 7 -15 -9 -19 -11 -3 -20 -10 -20 -16 0 -15 27 -14 33 2 3 6 6 1 6
-13 1 -14 5 -97 11 -185 14 -232 38 -768 45 -1000 13 -442 29 -751 41 -787 6
-21 -6 -24 -24 -6 -9 9 -12 9 -12 0 0 -7 -16 -12 -43 -12 -24 0 -51 -6 -61
-13 -16 -11 -15 -14 12 -34 31 -23 81 -46 147 -68 125 -42 143 -58 35 -31
-119 30 -218 74 -312 138 l-58 40 0 56 c0 93 -19 829 -24 927 -3 50 -10 331
-17 625 -11 485 -14 538 -31 572 -10 21 -18 44 -18 53 0 8 19 48 43 88 24 39
70 125 102 190 85 174 121 187 128 47z m7924 69 c18 -38 35 -325 31 -537 l-3
-192 34 -10 c19 -5 38 -7 42 -4 4 2 11 -1 15 -7 4 -7 3 -9 -4 -5 -6 3 -14 2
-17 -4 -4 -6 -15 -8 -25 -5 -11 3 -32 0 -47 -8 -32 -17 -83 -19 -83 -5 0 6 -6
5 -14 -2 -8 -6 -34 -21 -57 -33 -62 -32 -62 -47 0 -46 28 1 58 -4 66 -11 12
-10 15 -9 15 5 0 25 6 16 14 -20 5 -22 4 -26 -4 -15 -5 8 -10 10 -10 4 0 -18
27 -37 35 -24 3 5 11 10 18 10 8 0 8 -3 0 -11 -13 -13 6 -39 26 -39 6 0 11 -8
11 -17 0 -10 2 -412 3 -893 3 -740 1 -878 -11 -897 -11 -17 -11 -23 -2 -23 9
0 10 -9 5 -32 -4 -18 -7 -43 -6 -55 0 -11 2 -93 4 -182 2 -129 0 -161 -11
-166 -7 -2 -10 -9 -7 -15 3 -6 -1 -13 -9 -16 -9 -3 -13 -10 -10 -15 3 -5 10
-7 15 -4 5 4 9 2 9 -4 0 -6 6 -8 14 -5 10 4 17 -11 25 -58 6 -35 19 -74 29
-88 l19 -25 -51 -2 c-40 -1 -58 4 -91 27 -48 34 -101 117 -116 185 -6 28 -12
180 -14 345 -2 162 -6 356 -8 430 -11 289 -22 912 -22 1260 0 300 -2 367 -14
376 -27 21 -6 146 85 510 49 194 94 352 99 351 6 -2 15 -14 22 -28z m-6305
-30 c10 -19 16 -40 13 -47 -3 -7 0 -22 6 -33 7 -15 7 -24 -1 -34 -7 -8 -9 -18
-6 -23 3 -4 -4 -15 -15 -22 -22 -17 -25 -30 -5 -30 7 0 19 14 26 30 13 31 30
40 30 17 0 -7 9 -31 20 -52 11 -22 22 -50 25 -63 2 -12 7 -31 10 -42 4 -11 2
-20 -4 -20 -6 0 -11 -6 -11 -14 0 -8 -7 -16 -15 -18 -10 -2 -12 -7 -5 -18 7
-10 12 -11 18 -4 4 6 15 13 25 17 14 5 17 1 17 -22 0 -16 7 -34 15 -41 8 -7
15 -21 15 -31 0 -11 7 -19 15 -19 8 0 15 -3 15 -6 0 -8 -27 -34 -37 -34 -4 0
-16 -13 -25 -30 l-17 -29 37 -11 c20 -5 45 -10 55 -10 38 0 22 -20 -91 -114
-58 -49 -99 -75 -108 -72 -9 4 -33 -10 -60 -36 -40 -38 -60 -69 -32 -52 7 4 8
3 4 -4 -4 -6 -14 -8 -22 -5 -9 3 -29 -7 -50 -28 -38 -37 -47 -63 -11 -33 12
10 4 -1 -18 -24 -66 -71 -91 -50 -30 27 43 53 138 248 155 317 12 45 11 61 -4
124 -28 113 -67 203 -96 217 -14 7 -46 13 -72 13 -27 0 -48 2 -48 5 0 2 29 34
65 70 36 37 65 70 65 75 0 5 13 29 29 52 15 24 35 55 44 69 22 36 56 31 79
-12z m3862 -116 c63 -56 116 -110 120 -119 13 -34 5 -63 -36 -125 -22 -35 -51
-86 -64 -114 -14 -31 -50 -78 -97 -124 -41 -40 -83 -90 -92 -110 -11 -24 -27
-41 -47 -49 -46 -17 -76 6 -115 88 -32 67 -33 72 -33 204 0 77 4 137 10 141
14 8 80 123 95 165 7 19 27 65 44 101 l32 67 35 -11 c21 -6 80 -52 148 -114z
m-8629 35 c4 -4 -22 -38 -58 -76 -45 -48 -67 -80 -71 -103 -3 -19 -8 -457 -10
-974 -3 -605 -8 -941 -15 -943 -26 -9 -91 -64 -91 -77 0 -11 -7 -14 -24 -9
-13 3 -27 1 -30 -5 -4 -6 -16 -11 -27 -11 -10 0 -19 -4 -19 -10 0 -23 -133
-41 -167 -21 -12 6 -14 165 -13 990 0 645 4 990 11 1002 5 11 20 19 34 19 14
0 25 4 25 8 0 9 -66 32 -92 32 -19 0 -53 36 -36 38 7 1 33 4 58 7 25 4 56 2
70 -3 21 -8 41 0 125 43 55 29 126 60 157 69 32 10 60 21 62 24 5 9 102 9 111
0z m7638 -38 c27 0 37 -16 37 -59 0 -15 10 -45 22 -66 21 -39 22 -50 22 -379
l1 -338 -33 -28 c-47 -39 -76 -43 -104 -13 -19 20 -23 36 -24 101 -1 42 -7
113 -14 157 -12 84 -9 623 4 644 5 8 16 6 36 -4 16 -8 40 -15 53 -15z m-4117
-90 c3 0 3 7 0 16 -3 8 -2 13 3 10 5 -3 35 -58 66 -122 42 -84 58 -128 59
-161 1 -24 -2 -47 -7 -50 -4 -3 0 -12 10 -21 10 -10 20 -24 22 -32 7 -31 8
-36 15 -55 16 -44 39 -84 46 -80 12 7 18 -15 35 -131 16 -109 12 -134 -21
-134 -7 0 -18 -9 -24 -20 -6 -11 -16 -20 -23 -18 -7 1 -27 -6 -44 -15 -35 -18
-45 -34 -15 -22 33 12 -38 -40 -227 -166 -96 -64 -112 -58 -50 21 52 67 107
188 138 303 11 43 -9 152 -55 299 -33 104 -54 134 -106 150 l-40 12 24 21 c14
12 27 26 29 31 13 31 72 113 84 118 8 3 15 14 15 25 0 11 5 23 10 26 6 4 7 12
3 18 -4 7 5 4 20 -5 14 -10 29 -18 33 -18z m9794 -183 c0 -29 5 -79 10 -112 9
-58 -1 -135 -18 -135 -4 0 -12 -10 -17 -22 -6 -13 -20 -27 -32 -33 -13 -5 -23
-18 -23 -27 0 -10 -4 -18 -10 -18 -5 0 -10 -5 -10 -11 0 -6 -9 -22 -19 -35
-29 -36 -15 -76 27 -80 18 -2 32 0 32 5 0 31 78 10 85 -23 3 -12 7 -241 10
-511 5 -491 13 -990 19 -1162 3 -74 1 -90 -10 -86 -8 3 -14 0 -14 -6 0 -6 6
-11 13 -11 18 0 15 -54 -6 -74 -10 -10 -24 -15 -32 -12 -9 3 -15 0 -15 -9 0
-19 24 -19 40 0 7 8 16 12 21 9 13 -8 1 -24 -27 -34 -14 -6 -24 -18 -24 -30 0
-27 23 -26 35 2 6 12 17 24 25 26 12 4 11 1 -2 -15 -22 -24 -23 -42 -3 -49 10
-4 15 -19 15 -43 0 -27 -3 -32 -10 -21 -8 12 -10 9 -10 -12 0 -42 0 -43 16
-42 9 1 14 -8 14 -30 0 -17 6 -40 13 -51 47 -68 52 -79 36 -73 -20 8 -35 -2
-43 -29 -5 -17 -1 -26 17 -38 29 -18 126 -58 222 -90 39 -13 63 -24 55 -24
-28 -2 -264 79 -307 104 -23 14 -57 39 -75 55 -18 17 -40 30 -50 30 -10 0 -18
7 -18 17 0 27 -75 118 -90 108 -4 -3 -8 106 -8 242 0 137 -2 266 -5 288 -6 36
-12 573 -9 670 1 22 0 65 -3 95 -3 30 -9 219 -14 420 l-10 365 30 61 c16 34
41 74 55 90 26 27 26 28 9 57 -23 38 -21 79 6 175 31 112 79 200 100 186 5 -3
9 -29 9 -57z m-2840 7 c0 -7 -12 -22 -26 -33 -17 -14 -21 -21 -12 -21 9 0 27
9 41 20 32 25 37 14 37 -74 0 -85 -9 -92 -135 -101 -96 -7 -99 -7 -81 11 13
13 15 19 6 22 -14 5 -30 -9 -33 -29 -2 -8 -5 -19 -9 -24 -3 -6 -9 -152 -13
-325 -6 -306 -30 -958 -40 -1090 -3 -36 -7 -112 -9 -170 -3 -58 -5 -111 -5
-117 -1 -7 -9 -13 -18 -13 -17 -1 -17 -1 -1 -11 14 -8 17 -23 17 -72 -1 -34
-6 -71 -11 -82 -8 -13 -8 -20 1 -23 14 -5 15 -39 1 -47 -6 -4 -8 -11 -5 -16 3
-5 -2 -6 -11 -2 -11 4 -15 2 -11 -4 6 -10 -43 -73 -56 -73 -10 0 -47 -33 -47
-42 0 -18 38 -6 43 13 3 12 10 18 16 15 6 -4 8 -13 4 -21 -3 -8 0 -15 5 -15 6
0 14 9 17 20 10 31 34 25 32 -7 -2 -20 -8 -28 -22 -29 -38 -2 -74 -23 -89 -53
-15 -28 -15 -29 4 -24 30 8 24 -6 -7 -18 -16 -7 -22 -13 -16 -16 9 -3 10 -10
4 -21 -15 -30 -5 -152 14 -171 10 -9 15 -11 12 -6 -3 6 -2 17 4 25 10 17 12
11 13 -45 1 -27 4 -30 28 -27 21 2 26 -1 22 -12 -3 -8 -15 -16 -26 -19 -11 -3
-17 -10 -13 -16 3 -6 10 -9 15 -6 5 3 15 -2 24 -10 8 -9 18 -16 21 -15 3 0 4
-3 3 -7 -2 -5 -8 -7 -15 -7 -6 1 -9 -4 -6 -11 2 -8 -5 -18 -16 -25 -24 -13
-28 -30 -6 -30 8 0 15 4 15 10 0 5 6 8 13 6 6 -1 8 -1 4 2 -10 5 12 32 27 32
6 0 4 -5 -4 -10 -13 -8 -13 -10 2 -10 10 0 22 -9 28 -19 17 -33 13 -42 -15
-29 -21 9 -29 8 -46 -8 -15 -13 -23 -15 -26 -7 -2 7 -22 35 -44 62 -64 81 -81
142 -76 277 3 62 8 117 11 122 3 6 3 115 0 243 -14 511 0 2073 17 2095 10 13
46 8 66 -9 7 -5 20 -6 29 -3 12 4 15 2 10 -9 -6 -17 9 -21 19 -5 3 6 15 10 26
10 10 0 28 6 40 13 17 10 22 9 30 -5 14 -26 38 -23 32 3 -5 19 -3 21 25 14 31
-6 32 -6 26 27 -4 18 -13 38 -20 44 -24 19 -2 25 83 23 58 -2 83 -7 83 -15z
m3230 -101 c0 -13 7 -31 15 -39 8 -9 15 -11 15 -5 0 6 6 11 13 11 7 0 39 -53
71 -117 32 -65 83 -166 112 -225 42 -83 54 -118 54 -154 0 -57 -11 -78 -70
-135 -52 -50 -118 -101 -106 -81 4 7 1 12 -8 12 -9 0 -13 -7 -11 -20 2 -12 -9
-30 -33 -51 -20 -18 -79 -72 -130 -120 -51 -49 -102 -89 -113 -89 -10 0 -19 2
-19 4 0 2 36 54 80 116 90 125 133 209 154 297 15 68 11 110 -24 213 -41 123
-70 162 -135 184 -35 12 -35 13 -15 31 11 10 20 23 20 28 0 6 8 20 18 31 19
21 42 88 42 121 0 10 8 27 17 38 17 18 18 18 35 -3 10 -12 18 -33 18 -47z
m-14827 -112 c20 -38 34 -37 62 7 23 36 31 36 58 -1 14 -17 19 -40 18 -69 -3
-87 -3 -114 4 -146 4 -18 3 -38 -3 -45 -24 -30 -41 -123 -35 -198 6 -81 -3
-169 -17 -169 -5 0 -18 29 -30 65 -12 36 -23 65 -26 65 -2 0 -15 -25 -29 -55
-27 -57 -36 -62 -79 -45 -40 15 -51 74 -36 189 10 81 9 109 -6 202 -14 92 -15
122 -6 189 6 44 16 89 22 100 10 19 13 18 48 -18 20 -21 45 -53 55 -71z m2901
-56 c25 -50 46 -98 46 -107 0 -10 5 -17 11 -15 31 6 14 -21 -29 -47 -67 -42
-159 -123 -204 -179 -37 -48 -38 -51 -38 -132 0 -110 -4 -119 -40 -100 -72 37
-124 335 -79 453 14 38 52 76 138 140 62 46 139 87 148 78 1 -1 22 -42 47 -91z
m10275 75 c13 -12 21 -26 17 -35 -3 -9 3 -19 14 -25 14 -7 20 -7 20 0 0 5 -5
10 -11 10 -6 0 -4 7 5 15 18 18 40 8 70 -33 21 -27 22 -27 -29 -6 -27 11 -16
-17 18 -44 17 -15 57 -50 87 -78 53 -49 75 -56 92 -30 4 6 5 -6 1 -26 -4 -27
-2 -38 7 -38 7 0 10 8 8 18 -3 10 1 27 8 36 7 10 10 24 7 32 -3 9 2 14 16 14
20 0 28 -19 14 -33 -3 -4 -7 -17 -8 -30 -1 -12 -5 -30 -9 -39 -7 -15 -5 -16
18 -5 14 7 26 18 26 25 0 8 15 12 43 12 41 0 45 -2 65 -42 11 -24 33 -88 47
-143 15 -55 34 -120 42 -145 65 -202 67 -259 13 -325 -10 -11 -28 -40 -41 -65
-13 -25 -33 -57 -45 -72 -12 -15 -24 -33 -26 -39 -6 -19 -48 0 -48 21 0 23
-45 78 -55 68 -13 -13 4 -56 25 -61 14 -4 19 -12 18 -31 -1 -14 -5 -26 -8 -26
-4 1 -56 71 -78 106 -4 6 -14 13 -22 16 -9 3 -2 8 17 12 43 10 99 76 118 138
12 42 12 55 -1 105 -26 103 -106 306 -146 376 -47 81 -212 247 -276 278 -39
19 -72 65 -72 100 0 16 34 9 59 -11z m-10113 -57 c28 -19 65 -53 82 -76 31
-44 117 -219 123 -251 3 -11 19 -25 39 -32 34 -12 34 -12 7 -13 -39 -1 -26
-16 28 -31 25 -7 48 -17 51 -21 3 -5 10 -9 16 -9 6 0 3 9 -6 19 -12 13 -14 21
-6 26 15 9 41 -14 38 -34 -4 -22 35 -27 52 -6 10 12 10 15 -5 15 -14 0 -15 3
-5 15 7 8 19 15 26 15 21 0 17 50 -6 88 -22 36 -24 42 -12 42 5 0 25 -36 45
-79 38 -80 38 -80 42 -243 3 -90 9 -244 15 -343 5 -99 14 -301 21 -450 6 -151
17 -302 25 -343 20 -100 22 -98 -128 -118 -35 -5 -48 -11 -51 -26 -4 -14 -11
-18 -25 -14 -16 5 -22 0 -32 -26 l-12 -33 -14 38 c-7 22 -13 49 -13 60 1 39
-9 146 -16 168 -4 13 -2 24 5 29 9 5 9 17 0 48 -6 23 -10 63 -10 89 2 62 -8
261 -15 327 -3 28 -7 119 -10 201 -3 83 -7 168 -10 190 -3 22 -7 92 -10 155
-6 157 -13 204 -36 280 -52 165 -148 308 -244 365 -25 14 -45 28 -45 31 0 7
36 -13 96 -53z m10064 -36 c0 -12 -34 -68 -75 -122 -22 -30 -35 -181 -35 -412
0 -193 -1 -201 -19 -196 -23 6 -124 -22 -158 -44 -13 -9 -26 -13 -29 -10 -3 3
-6 79 -7 169 -2 189 -3 188 105 393 68 132 91 162 162 209 43 29 56 32 56 13z
m-9864 -59 c4 4 4 -2 0 -12 -10 -29 14 -38 35 -13 18 22 18 22 25 -20 6 -37 9
-41 25 -33 24 14 29 13 29 -6 0 -13 7 -15 30 -11 23 5 33 2 44 -15 15 -20 14
-23 -12 -40 -26 -17 -27 -17 -45 5 l-18 22 7 -27 c5 -21 2 -28 -9 -28 -23 0
-83 78 -79 102 3 16 -1 19 -16 14 -29 -10 -52 3 -52 29 0 15 -8 26 -20 30 -16
5 -18 9 -8 25 11 18 13 18 34 -5 12 -13 25 -21 30 -17z m12024 -63 c24 -58 24
-82 -1 -98 -11 -7 -26 -3 -57 18 -33 22 -42 34 -42 56 0 17 -8 34 -20 42 -19
13 -19 15 -3 29 49 42 94 25 123 -47z m-5123 40 c32 -8 70 -24 85 -35 15 -11
32 -20 37 -20 6 0 14 -6 18 -14 4 -7 20 -19 34 -27 32 -17 105 -76 181 -148
49 -46 58 -59 56 -85 -1 -18 -12 -38 -25 -49 -13 -10 -23 -27 -23 -37 0 -9
-10 -25 -22 -33 l-23 -16 25 7 c33 8 90 42 90 53 0 18 30 8 46 -16 11 -17 19
-65 25 -162 22 -325 29 -1258 10 -1307 -9 -23 -9 -31 1 -37 10 -6 10 -11 1
-20 -7 -7 -9 -24 -7 -39 6 -27 6 -27 -57 -29 -35 -1 -68 -6 -73 -11 -13 -13
-36 -13 -36 0 0 6 6 10 14 10 7 0 19 7 26 15 17 21 -26 40 -60 26 -19 -7 -20
-10 -7 -10 10 -1 15 -6 12 -11 -4 -6 -15 -8 -26 -5 -12 4 -31 -3 -54 -21 -20
-15 -38 -24 -41 -21 -4 3 13 41 37 84 l44 78 0 367 c0 201 3 369 7 373 4 4 5
12 3 18 -2 7 -6 48 -10 91 -3 43 -8 83 -11 88 -3 4 -5 47 -6 95 0 48 -4 96 -9
105 -6 12 -6 25 0 35 7 12 5 21 -7 30 -12 8 -13 12 -4 13 9 0 10 5 4 18 -5 9
-13 39 -17 67 -9 66 -24 92 -78 141 -33 30 -49 54 -57 85 -37 148 -53 183
-111 241 -55 55 -63 70 -60 111 1 21 -3 20 68 2z m-87 -109 c0 -16 -34 -31
-50 -21 -14 9 -88 -37 -142 -90 -53 -51 -58 -59 -27 -50 15 5 19 4 14 -5 -5
-8 -2 -8 13 1 12 7 17 19 14 31 -3 13 0 17 11 12 10 -3 26 4 42 20 25 25 92
62 99 55 2 -2 -3 -21 -11 -41 -11 -29 -37 -53 -109 -104 -110 -78 -134 -107
-134 -161 l0 -39 -64 4 c-62 4 -64 3 -59 -17 4 -16 1 -21 -15 -21 -19 0 -31
-16 -38 -52 -4 -20 -2 -21 109 -18 42 1 77 -2 77 -7 0 -9 -61 -35 -77 -32 -4
1 -19 1 -33 0 l-25 -1 33 -32 c28 -29 35 -31 52 -20 12 7 25 10 29 8 5 -3 16
3 26 14 10 11 22 17 27 14 4 -3 23 4 42 15 42 26 50 26 34 1 -7 -11 -24 -22
-39 -25 -15 -3 -43 -22 -63 -42 -36 -37 -44 -53 -26 -53 6 0 10 7 10 15 0 8 5
15 10 15 6 0 10 -73 10 -197 0 -285 10 -937 15 -1010 5 -72 18 -102 81 -179
25 -30 43 -58 41 -61 -3 -2 -34 24 -69 59 -97 95 -182 148 -164 102 5 -14 4
-15 -9 -4 -19 16 -19 30 -1 30 25 0 28 19 8 41 -14 14 -22 17 -27 9 -8 -14
-35 6 -35 26 0 7 -8 28 -18 46 -48 86 -64 342 -62 978 0 253 4 342 16 400 9
41 17 83 19 92 8 39 189 172 360 264 86 47 105 52 105 30z m4621 -136 c10 -6
26 -24 34 -40 14 -27 14 -32 -5 -62 -11 -18 -20 -43 -20 -55 0 -23 -48 -103
-62 -103 -4 0 -17 9 -28 20 -20 20 -25 61 -20 175 2 61 50 92 101 65z m-7505
-116 c-14 -31 -37 -69 -51 -86 -15 -18 -25 -42 -25 -61 0 -18 -11 -56 -25 -85
-14 -30 -25 -60 -25 -68 0 -8 -9 -23 -19 -33 -20 -20 -51 -98 -51 -126 0 -8
-6 -15 -14 -15 -16 0 -32 -38 -41 -98 -13 -81 -153 -394 -163 -364 -2 7 -8 10
-13 6 -15 -9 -10 5 16 44 35 51 33 76 -4 53 -7 -5 -13 -20 -13 -34 0 -19 -6
-27 -22 -29 -13 -2 -20 -10 -20 -20 2 -19 -62 -95 -71 -86 -3 2 4 13 14 22 11
10 17 23 15 30 -3 7 2 19 11 26 40 33 -4 32 -63 -3 -31 -18 -32 -18 -26 -1 4
11 10 24 14 29 4 6 13 28 20 50 7 22 33 83 57 135 25 52 52 113 60 135 8 22
27 65 40 95 14 30 26 61 26 68 0 6 4 12 9 12 4 0 8 8 8 19 0 18 19 64 79 196
16 33 34 77 40 98 7 20 16 37 21 37 10 0 118 65 140 85 9 8 21 15 26 15 5 0
23 12 39 26 29 25 30 25 33 5 2 -12 -8 -46 -22 -77z m-896 -102 c0 -5 -19 -25
-41 -46 -41 -36 -41 -38 -37 -92 4 -47 3 -54 -11 -48 -40 16 -51 16 -45 1 3
-9 18 -19 34 -22 34 -7 62 -65 80 -165 7 -36 23 -101 35 -145 36 -122 39 -146
24 -156 -11 -7 -11 -9 2 -9 9 0 20 -11 23 -24 3 -13 9 -31 12 -40 5 -12 2 -15
-11 -10 -9 4 -20 2 -24 -4 -4 -7 -21 -4 -49 9 -54 25 -70 21 -40 -10 l22 -24
-22 5 c-12 4 -20 3 -17 -2 10 -16 -23 -32 -44 -21 -35 19 -41 12 -14 -15 26
-26 27 -26 55 -9 35 21 46 15 18 -10 -21 -19 -59 -24 -102 -12 -16 4 -28 3
-28 -2 0 -5 9 -11 20 -14 23 -6 27 -27 5 -27 -8 0 -15 -4 -15 -10 0 -14 20
-12 54 5 26 14 30 14 42 -2 11 -15 11 -20 -3 -30 -9 -7 -22 -13 -28 -13 -6 0
-17 -11 -25 -24 -11 -22 -9 -32 21 -92 44 -88 42 -84 32 -84 -16 0 -102 174
-119 241 -17 69 -31 131 -100 451 -49 229 -49 232 -32 222 19 -12 52 -13 66
-1 9 7 16 7 24 -1 8 -8 15 -8 24 -1 10 8 22 6 45 -5 22 -11 35 -13 39 -6 4 6
20 9 36 5 23 -4 25 -3 9 4 -11 5 -34 10 -52 10 -34 1 -52 15 -31 25 7 3 2 3
-12 -1 -14 -3 -43 -7 -65 -7 -39 -1 -40 0 -40 33 -1 34 30 81 53 81 6 0 12 5
14 11 2 5 20 14 41 19 34 7 37 6 32 -10 -3 -11 1 -20 11 -24 25 -10 36 3 29
35 -6 25 -4 29 14 29 12 0 21 4 21 9 0 5 12 14 28 19 35 13 42 14 42 4z m1063
-66 c10 -14 -1 -275 -14 -335 -5 -24 -7 -69 -3 -101 7 -63 -13 -115 -66 -176
-37 -42 -45 -91 -25 -156 11 -38 13 -73 9 -128 -4 -46 -2 -104 6 -146 6 -38
11 -105 11 -149 -2 -86 6 -107 49 -128 14 -7 28 -26 33 -42 10 -34 20 -65 47
-145 45 -132 50 -161 55 -326 3 -92 7 -170 9 -173 2 -3 -1 -35 -6 -70 l-10
-65 31 -25 c28 -23 31 -33 36 -96 4 -38 2 -76 -3 -83 -12 -18 -71 -33 -162
-41 -41 -4 -87 -12 -101 -18 -25 -11 -32 -5 -145 109 -65 65 -135 128 -154
138 -54 28 -178 43 -246 31 -116 -22 -187 -76 -304 -233 -85 -113 -129 -188
-149 -249 -24 -72 -93 -154 -157 -185 -62 -30 -94 -27 -114 12 -8 14 -27 32
-42 40 -32 17 -36 39 -9 53 10 6 24 24 29 41 9 24 17 30 39 30 21 0 33 8 46
29 22 38 21 54 -3 76 -18 17 -19 20 -5 41 9 14 11 25 5 29 -15 9 -12 25 5 25
9 0 21 12 27 28 6 15 25 42 42 60 25 27 30 39 27 72 -2 33 3 47 28 76 17 19
31 46 31 60 0 15 11 34 27 48 23 20 27 33 31 89 4 59 6 66 28 71 17 5 26 16
30 34 3 16 17 34 35 44 17 10 29 25 29 37 0 11 13 33 29 50 18 18 31 44 35 71
4 24 16 54 26 68 11 13 25 42 30 63 7 23 18 40 31 44 12 4 22 19 26 36 4 20
11 29 25 29 13 0 24 11 31 29 9 24 21 32 71 47 72 21 166 74 218 122 39 37 78
137 78 204 0 22 11 46 33 74 18 23 41 60 52 83 l19 42 -28 25 c-24 23 -26 31
-21 68 5 29 2 55 -9 80 -14 34 -14 39 2 66 13 20 17 46 16 89 -2 53 1 64 27
97 16 20 30 46 30 58 1 11 2 29 3 39 1 10 11 26 24 36 16 12 25 31 29 62 3 24
14 53 24 64 25 29 39 70 39 119 0 23 3 45 6 49 9 9 118 -5 127 -17z m-2749
-122 c22 -21 20 -67 -5 -115 l-20 -41 -32 41 -31 41 -28 -27 -28 -27 0 67 0
66 38 4 c76 8 91 7 106 -9z m-4461 -64 c62 -55 67 -83 25 -147 -18 -28 -42
-54 -53 -57 -48 -14 -151 -5 -215 18 l-65 24 -3 70 c-3 68 -2 70 29 97 22 18
39 25 53 20 59 -16 115 -17 137 -1 33 23 41 21 92 -24z m12733 -29 c-31 -6
-48 -31 -22 -31 9 0 24 -9 33 -20 10 -11 23 -20 30 -20 7 0 13 -5 13 -11 0 -5
4 -8 9 -5 5 3 11 -1 15 -9 3 -8 12 -15 21 -15 14 0 16 -37 16 -322 0 -395 6
-589 19 -639 12 -42 49 -95 128 -179 76 -81 63 -79 -20 4 -43 43 -73 66 -76
58 -2 -7 6 -22 19 -32 12 -11 17 -20 12 -20 -6 0 -16 7 -23 15 -12 14 -71 48
-75 43 -1 -2 -6 -11 -12 -21 -8 -16 -14 -11 -43 37 -19 31 -37 56 -41 56 -3 0
-12 20 -19 45 -7 24 -23 59 -36 77 -13 17 -24 40 -24 49 0 10 -4 20 -9 23 -5
4 -12 39 -16 79 -11 128 -13 539 -3 632 5 50 10 100 11 112 1 12 5 25 10 29 4
4 7 14 7 22 0 29 32 52 69 51 35 -1 35 -2 7 -8z m-9856 -35 c0 -7 -23 -42 -51
-77 -76 -96 -79 -103 -79 -230 0 -207 50 -678 81 -769 23 -65 23 -66 5 -51 -8
7 -21 31 -29 54 -8 23 -25 58 -38 78 -13 20 -29 45 -36 55 -12 18 -13 18 -26
2 -8 -10 -17 -18 -21 -18 -4 0 -6 8 -4 18 2 9 -1 16 -7 15 -72 -11 -103 -6
-111 20 -4 12 -12 25 -18 29 -8 5 -7 11 2 20 9 9 12 9 12 0 0 -7 6 -12 13 -10
6 1 26 -6 44 -15 35 -18 98 -23 108 -8 3 6 -1 13 -9 18 -7 4 -15 17 -17 27 -2
11 -11 21 -19 23 -13 4 -13 3 0 -6 13 -9 13 -12 -2 -27 -17 -17 -54 -12 -43 6
3 5 -1 10 -9 10 -9 0 -16 6 -16 13 0 8 -4 7 -11 -3 -7 -10 -12 -11 -15 -4 -4
8 -17 9 -46 2 -23 -5 -47 -7 -53 -4 -21 8 -11 47 15 61 l25 14 -32 1 c-32 0
-43 12 -23 25 6 4 5 13 -2 25 -17 27 -4 34 31 17 l31 -15 0 29 c0 23 4 29 22
29 20 0 21 1 6 16 -14 15 -17 14 -36 -2 -12 -10 -18 -22 -15 -27 4 -7 -34 -1
-44 8 -9 7 -10 102 -1 118 9 17 8 19 -6 14 -14 -5 -16 2 -16 50 0 59 18 93 50
93 9 0 22 6 28 12 10 10 15 10 22 -2 8 -12 10 -10 11 10 0 14 3 19 6 13 9 -23
25 -14 18 10 -5 17 -4 19 4 7 10 -13 15 -8 12 13 0 4 6 7 14 7 8 0 16 5 16 10
1 6 2 14 3 19 2 18 16 24 16 8 0 -25 25 -21 27 4 2 23 20 49 36 49 18 0 36 34
37 67 0 17 5 35 10 38 6 4 4 12 -5 22 -13 13 -23 13 -63 3 -26 -6 -61 -22 -79
-36 -42 -32 -53 -30 -53 6 0 22 4 28 15 24 13 -5 101 32 225 95 56 29 90 27
90 -3z m6123 -100 c44 -10 59 -56 45 -140 -8 -49 -8 -80 0 -119 7 -29 16 -92
22 -140 6 -48 16 -100 22 -115 5 -15 16 -129 24 -253 12 -206 24 -279 45 -279
4 0 10 -14 14 -30 6 -29 36 -71 107 -153 46 -53 56 -65 65 -69 5 -1 32 -29 61
-60 37 -40 52 -65 52 -85 0 -40 30 -83 85 -123 26 -19 71 -56 99 -82 45 -42
49 -49 36 -62 -13 -14 -97 -28 -297 -52 -27 -3 -58 -17 -87 -40 -61 -46 -115
-64 -195 -64 -151 0 -211 -43 -257 -185 -46 -140 -74 -166 -196 -181 -29 -3
-69 -16 -88 -29 -20 -12 -60 -35 -88 -49 -61 -31 -84 -63 -108 -152 -20 -74
-47 -104 -102 -111 -33 -4 -46 -1 -75 21 -35 27 -62 78 -49 91 4 4 7 266 8
583 0 318 4 596 8 620 7 38 10 42 38 42 20 0 39 9 58 30 22 23 41 31 96 40 38
6 89 20 114 31 59 26 120 86 120 118 0 25 -45 147 -62 168 -23 28 -129 93
-152 93 -21 0 -26 6 -32 36 -4 20 -2 59 4 85 7 27 9 69 5 94 -6 44 -5 45 31
60 46 19 64 58 76 164 8 71 11 78 47 109 54 48 158 98 252 122 44 12 107 34
138 50 32 16 65 28 73 26 8 -2 28 -7 43 -10z m-9041 -133 c-19 -15 -63 -45
-100 -68 -36 -22 -75 -53 -86 -68 -20 -27 -20 -28 -2 -60 10 -17 53 -61 97
-96 44 -35 78 -66 75 -68 -2 -3 -11 -1 -19 4 -16 9 -150 127 -182 159 -11 11
-32 24 -47 27 -14 4 -34 10 -44 14 -15 5 -16 2 -10 -23 5 -21 4 -26 -4 -18
-21 21 -21 61 1 88 33 42 253 133 324 135 l30 0 -33 -26z m10855 -40 c7 -9 16
-31 19 -50 3 -18 10 -36 15 -39 5 -3 9 -104 9 -224 l0 -220 -38 -19 c-69 -35
-83 -32 -114 24 l-28 50 0 222 0 221 27 32 c23 28 30 31 62 25 20 -3 42 -14
48 -22z m-5189 -39 c12 -8 22 -20 22 -25 0 -6 9 -22 20 -36 25 -32 25 -54 0
-95 -11 -18 -20 -44 -20 -58 0 -14 -14 -54 -30 -88 -17 -35 -30 -74 -30 -85 0
-53 -11 -67 -49 -67 -20 0 -43 -5 -51 -10 -23 -14 -30 19 -12 57 14 28 14 38
1 75 -16 50 -18 240 -2 260 6 7 16 30 22 51 12 36 14 37 60 37 26 0 56 -7 69
-16z m1587 -284 c9 -17 26 -35 38 -41 15 -7 28 -29 40 -67 23 -70 43 -102 62
-102 8 0 15 -4 15 -10 0 -5 -10 -10 -23 -10 -16 0 -33 -13 -53 -42 -39 -55
-95 -79 -125 -52 -23 21 -24 59 -4 134 11 39 14 76 9 127 -6 70 -2 93 16 93 5
0 17 -14 25 -30z m-710 -30 c-10 -11 -24 -20 -32 -20 -7 0 -13 -3 -13 -7 0
-13 -60 -43 -74 -37 -9 4 -21 -6 -31 -25 -12 -24 -13 -31 -2 -31 7 0 20 -9 30
-20 14 -17 14 -20 2 -20 -19 0 -19 0 1 -39 13 -25 13 -35 4 -46 -17 -20 9 -20
36 0 26 19 55 20 48 0 -4 -8 -10 -12 -15 -9 -13 8 -39 -15 -50 -43 -6 -15 -14
-21 -26 -18 -10 3 -5 -1 10 -8 28 -14 28 -14 7 -28 -12 -8 -22 -22 -24 -31 -1
-9 -9 -25 -18 -35 -9 -10 -19 -29 -23 -43 -7 -22 -6 -23 9 -11 30 25 16 0 -24
-42 -93 -98 -104 -107 -113 -98 -5 5 -18 6 -31 1 -11 -5 -29 -11 -40 -14 -14
-5 -16 -9 -7 -20 13 -15 5 -26 -21 -26 -11 0 -16 4 -12 11 5 8 1 8 -14 0 -14
-7 -18 -17 -15 -31 5 -19 -3 -25 -33 -21 -17 2 -47 -36 -34 -44 7 -4 3 -16
-10 -33 -12 -15 -29 -38 -40 -52 -10 -14 -20 -23 -23 -20 -7 8 34 130 44 130
5 0 9 8 9 17 0 9 6 24 14 32 11 13 28 63 39 118 2 7 6 16 10 19 4 4 7 16 7 26
0 10 6 29 14 41 21 34 51 198 37 207 -7 3 -9 14 -5 23 5 15 8 15 21 2 19 -19
43 -19 43 0 0 9 -6 12 -17 8 -31 -12 -3 16 58 58 33 22 93 74 134 116 73 73
106 91 71 38 -9 -14 -12 -25 -7 -25 5 0 11 4 13 9 3 11 88 61 102 61 5 0 1 -9
-9 -20z m-7024 -40 c38 0 124 -49 205 -117 28 -24 91 -72 140 -108 49 -36 96
-71 104 -78 8 -7 28 -22 43 -34 50 -38 87 -93 87 -127 0 -18 -8 -50 -19 -72
-17 -36 -31 -140 -36 -264 -2 -53 14 -157 28 -184 10 -20 20 -105 19 -164 0
-18 -8 -55 -17 -83 -22 -64 -61 -92 -120 -85 -34 4 -44 1 -70 -24 -17 -16 -44
-32 -61 -36 -27 -5 -33 -1 -59 37 -32 49 -38 94 -50 344 -6 133 -11 161 -40
250 -19 55 -37 118 -41 140 -3 22 -17 66 -30 97 -30 72 -30 79 2 145 31 67 25
91 -48 190 -78 104 -118 143 -148 143 -34 0 -42 8 -29 32 17 31 50 38 89 17
19 -11 42 -19 51 -19z m8366 15 c31 -44 67 -81 99 -103 19 -13 38 -40 50 -69
16 -45 18 -105 21 -855 2 -541 0 -808 -7 -808 -5 0 -10 7 -10 15 0 8 -4 15
-10 15 -5 0 -10 -4 -10 -9 0 -11 28 -41 38 -41 4 0 8 -52 9 -116 1 -70 -3
-114 -9 -112 -13 5 -59 119 -52 130 3 5 -2 15 -12 23 -11 7 -19 19 -20 27 0 7
-2 21 -2 31 -1 9 -7 17 -12 17 -6 0 -30 21 -55 47 -44 47 -72 55 -41 11 22
-31 21 -68 -1 -69 -32 -2 -38 -4 -62 -18 -13 -7 -20 -16 -15 -20 5 -3 9 -13 9
-21 0 -12 10 -14 48 -12 38 3 46 1 41 -11 -3 -8 -16 -18 -29 -21 -17 -4 -22
-11 -18 -25 3 -11 -2 -21 -12 -25 -16 -6 -16 -8 0 -32 11 -17 16 -46 16 -87
-1 -188 -3 -227 -10 -231 -5 -3 -7 -26 -4 -52 2 -26 -1 -52 -6 -58 -12 -14
-18 -83 -8 -92 12 -12 8 -62 -5 -66 -8 -3 -11 -27 -9 -79 5 -101 5 -86 -3
-259 -4 -85 -12 -160 -17 -166 -6 -7 -6 -21 0 -36 5 -14 6 -41 2 -59 -4 -19
-8 -79 -9 -134 -3 -172 -24 -241 -36 -117 -5 61 -8 189 -20 1019 -6 381 4 555
39 664 27 87 41 219 23 230 -6 4 -5 14 4 28 11 18 11 23 -1 31 -12 7 -12 11
-2 24 8 9 10 16 5 16 -4 0 -3 5 4 12 7 7 12 22 12 34 0 15 17 32 61 59 41 25
59 42 55 52 -7 17 10 53 25 53 6 0 7 -4 4 -10 -3 -5 -1 -10 5 -10 7 0 9 8 5
21 -6 18 -4 20 14 14 16 -5 23 -1 30 17 11 30 2 80 -13 75 -12 -5 -12 -8 -2
-47 6 -20 5 -22 -3 -8 -9 14 -17 14 -48 5 -21 -6 -45 -16 -53 -23 -19 -15 -88
-44 -107 -44 -11 0 -13 17 -12 80 1 44 5 77 10 75 14 -9 21 15 9 30 -7 8 -10
24 -7 35 3 13 0 20 -9 20 -19 0 -18 26 1 34 17 6 20 42 4 51 -6 4 -8 13 -5 21
3 8 -1 17 -9 20 -22 9 -18 32 6 39 11 4 24 18 30 32 8 21 12 23 24 13 12 -10
15 -10 15 3 0 19 48 31 66 16 11 -9 14 -9 14 0 0 7 -15 18 -32 26 -29 12 -34
11 -46 -6 -22 -31 -32 -12 -15 28 16 40 10 128 -12 163 -3 6 -1 10 5 10 6 0 8
4 5 10 -3 5 -1 18 4 28 6 12 7 22 1 28 -6 6 -12 62 -14 124 -2 63 -6 150 -8
193 -2 43 -1 80 3 83 4 2 10 22 14 44 8 48 19 50 44 8 29 -49 54 -78 69 -78 8
0 25 -9 39 -20 31 -24 43 -25 43 -4 0 9 -9 18 -20 21 -11 3 -18 8 -15 12 2 4
-12 13 -31 20 -18 7 -34 17 -34 23 0 5 -7 7 -16 4 -9 -4 -14 -1 -12 6 2 6 -9
24 -24 40 -31 32 -33 39 -16 56 17 17 25 15 45 -13z m-7313 -210 c-4 -10 0
-15 15 -15 12 0 21 -4 21 -8 0 -5 17 -14 38 -21 20 -7 43 -15 51 -18 9 -4 11
0 7 15 -4 12 -1 26 9 36 11 11 12 16 4 16 -7 0 -9 3 -6 7 4 3 17 -2 29 -13 14
-12 18 -14 13 -4 -5 10 -5 12 2 5 6 -5 14 -20 18 -32 6 -23 -4 -29 -42 -24 -7
1 -13 -3 -13 -9 0 -5 10 -10 23 -10 13 0 27 -4 32 -9 6 -5 21 -11 35 -13 19
-2 26 -10 29 -33 4 -29 4 -29 10 -6 22 84 26 -12 28 -674 1 -619 3 -707 17
-727 8 -12 50 -57 92 -100 43 -43 74 -81 71 -84 -3 -4 -18 -3 -34 0 -19 5 -23
10 -14 16 10 6 -5 25 -56 74 -39 36 -76 80 -83 96 -7 16 -16 27 -21 24 -5 -3
-9 -1 -9 4 0 5 -9 12 -20 15 -11 3 -20 1 -20 -4 0 -5 -5 -9 -11 -9 -7 0 -5 10
5 25 16 24 16 26 -6 35 -17 6 -19 9 -5 9 9 1 17 6 17 12 0 6 -10 9 -22 7 -16
-2 -22 -9 -20 -20 2 -13 -4 -18 -21 -18 -27 0 -47 17 -41 34 7 18 -32 34 -98
41 -50 6 -58 4 -58 -10 0 -9 10 -25 23 -35 12 -10 18 -22 14 -27 -5 -4 -16 1
-26 13 -9 12 -27 26 -39 33 -20 11 -21 18 -19 111 2 62 7 104 15 112 17 17 15
31 -4 24 -15 -6 -16 6 -9 116 3 68 6 162 6 210 0 73 3 89 17 97 9 4 22 6 29 4
6 -2 14 1 18 6 3 6 1 11 -4 11 -6 0 -11 5 -11 11 0 6 7 9 15 5 8 -3 29 2 47
12 18 9 34 18 36 19 2 1 -1 10 -7 20 -8 17 -6 19 12 19 17 -1 23 6 25 26 2 15
11 33 20 40 9 7 17 20 17 28 0 10 8 14 24 12 13 -1 29 5 36 15 16 22 8 38 -11
22 -11 -9 -17 -9 -28 0 -17 14 -56 -1 -56 -21 0 -8 -3 -9 -10 -2 -6 6 -24 8
-41 6 -24 -3 -28 -8 -24 -23 4 -12 2 -19 -8 -19 -7 0 -31 -13 -53 -30 -21 -16
-42 -30 -45 -30 -7 0 -11 133 -12 419 0 159 1 165 23 183 28 23 72 25 64 3z
m3096 -154 c0 -5 -23 -33 -50 -63 -38 -40 -52 -50 -59 -39 -6 9 -11 10 -15 2
-4 -6 -2 -11 4 -11 11 0 -101 -137 -218 -266 -67 -75 -86 -89 -76 -56 4 9 -7
3 -23 -15 -28 -30 -32 -32 -66 -22 -35 9 -55 38 -42 59 3 5 -3 15 -15 22 -11
7 -20 16 -20 21 0 4 -9 17 -20 29 -11 12 -20 30 -20 40 0 10 -6 18 -14 18 -8
0 -23 14 -33 30 -9 17 -23 30 -30 30 -7 0 -13 5 -13 10 0 6 8 10 18 10 15 0
106 48 187 100 17 10 40 19 53 19 12 1 22 7 22 15 0 8 4 18 10 21 6 3 7 -1 4
-9 -4 -10 -1 -16 9 -16 22 0 32 20 16 31 -11 7 -10 9 4 9 9 0 17 7 17 15 0 20
16 19 24 -1 5 -13 9 -14 21 -4 10 9 19 9 28 2 11 -9 73 -8 125 2 15 3 22 0 22
-11 0 -11 4 -13 13 -6 20 16 85 23 90 10 2 -7 10 -3 18 11 14 23 29 29 29 13z
m1912 -261 c28 -34 23 -89 -13 -143 -28 -42 -30 -52 -24 -95 6 -42 3 -54 -19
-87 -18 -26 -26 -51 -26 -81 0 -35 -4 -46 -22 -55 -32 -17 -38 -28 -38 -75 0
-32 -6 -46 -30 -69 -16 -16 -30 -34 -30 -40 0 -6 -15 -26 -34 -44 -32 -31 -39
-33 -107 -35 l-73 -1 -11 53 c-8 43 -16 57 -37 68 -16 8 -28 17 -28 20 0 19
38 66 57 69 13 3 33 7 46 10 26 5 67 62 67 92 0 28 -22 44 -78 58 -25 7 -50
19 -56 27 -25 40 39 124 136 180 38 22 54 39 75 85 27 56 30 58 88 75 75 22
134 17 157 -12z m4995 -142 c30 -28 29 -40 -6 -102 -33 -58 -46 -106 -36 -136
7 -23 122 -101 191 -131 35 -15 47 -27 68 -72 14 -30 26 -57 26 -62 0 -4 11
-20 25 -37 61 -72 -2 -111 -89 -55 -35 23 -106 46 -203 67 -53 11 -133 38
-191 65 -58 26 -134 52 -179 61 -88 17 -101 26 -113 79 -7 33 -6 41 13 57 28
24 117 70 182 93 61 23 125 62 125 76 0 12 40 48 55 49 6 1 30 16 55 35 25 19
47 34 49 34 3 1 15 -9 28 -21z m-6953 -28 c23 -8 66 -62 66 -82 0 -4 -30 -22
-66 -40 -80 -40 -92 -60 -69 -114 l16 -39 20 28 c12 15 28 27 37 27 10 0 29 7
45 14 27 15 27 15 27 -19 0 -19 7 -55 16 -80 15 -46 15 -47 -11 -81 -25 -33
-37 -61 -49 -116 -6 -25 -11 -28 -49 -28 -37 0 -47 6 -90 50 -38 40 -55 50
-80 50 -18 0 -49 11 -70 25 -33 23 -37 31 -37 67 0 22 11 66 25 97 13 31 29
83 35 115 8 48 16 65 42 87 20 17 45 28 63 29 17 0 37 5 45 10 19 12 52 13 84
0z m799 -87 c78 -5 87 -8 82 -24 -5 -16 1 -17 72 -13 l78 5 -32 -18 c-57 -33
-135 -73 -140 -73 -3 0 1 7 8 17 13 15 12 15 -8 5 -32 -17 -38 -15 -19 7 11
13 14 21 7 26 -6 3 -14 -1 -17 -9 -6 -15 -64 -56 -79 -56 -4 0 4 10 19 21 37
29 26 34 -18 8 -20 -11 -36 -16 -36 -10 0 6 7 11 15 11 8 0 15 5 15 10 0 13
-1 13 -45 -6 -55 -23 -117 -75 -110 -92 4 -11 2 -12 -7 -5 -7 6 -25 13 -40 17
-70 17 5 62 166 101 55 14 111 25 124 25 15 0 22 6 22 18 0 17 -9 19 -95 18
-52 -1 -96 3 -98 7 -3 9 -26 10 -81 5 -18 -2 -31 2 -34 11 -4 12 9 13 79 7 46
-4 123 -9 172 -13z m405 -161 c9 -6 5 -15 -14 -33 -42 -38 -84 -100 -84 -124
0 -16 13 -29 49 -48 27 -15 56 -27 65 -27 9 0 16 -4 16 -8 0 -9 -165 -22 -280
-22 -82 0 -164 23 -184 52 -14 20 -14 24 4 43 11 12 20 29 20 37 0 9 10 20 23
24 12 4 28 15 35 25 7 11 21 19 31 19 11 0 21 7 25 15 3 8 14 15 25 15 11 0
23 5 27 11 4 7 21 9 43 6 20 -3 59 0 86 8 58 16 95 18 113 7z m1063 -45 c-8
-10 -7 -17 1 -25 8 -8 7 -13 -5 -18 -9 -3 -17 -12 -17 -18 0 -7 -11 -18 -24
-24 -17 -8 -23 -17 -19 -30 4 -19 -18 -35 -52 -37 -5 0 -12 -11 -15 -25 -9
-37 -36 -93 -70 -143 -16 -25 -30 -50 -30 -56 0 -6 -4 -11 -9 -11 -14 0 -21
-44 -8 -52 8 -5 7 -8 -4 -8 -9 0 -19 -7 -23 -15 -8 -22 -26 -18 -26 5 0 11 4
20 9 20 7 0 23 28 62 111 26 57 65 127 77 141 8 9 11 21 8 26 -3 5 3 17 14 27
11 10 20 24 20 32 0 23 30 74 40 68 5 -3 21 6 36 20 28 26 55 35 35 12z
m-1811 -66 c0 -11 -4 -23 -10 -26 -5 -3 -17 -21 -25 -39 -12 -25 -13 -39 -6
-59 12 -31 19 -33 47 -12 24 18 34 19 34 1 0 -7 9 -16 21 -19 35 -9 70 14 91
62 22 53 31 51 16 -4 -5 -22 -12 -57 -15 -77 -5 -36 -4 -37 39 -46 41 -9 41
-10 10 -11 -18 -1 -47 6 -65 16 -18 9 -51 16 -74 16 -26 0 -44 5 -47 14 -7 17
-56 17 -56 -1 0 -7 11 -25 26 -41 41 -45 17 -43 -28 3 -36 36 -42 47 -41 81 3
79 83 216 83 142z m1501 -476 c5 4 9 -1 9 -9 0 -9 7 -16 15 -16 18 0 19 -4 3
-30 -10 -15 -10 -25 -2 -38 19 -29 12 -67 -11 -67 -14 0 -21 8 -23 26 -4 36
-48 77 -64 61 -16 -16 -60 -15 -84 2 -18 14 -18 15 11 21 48 10 96 37 114 64
l16 25 3 -22 c2 -12 8 -20 13 -17z m-1231 -254 c58 -12 141 -28 185 -37 44 -9
168 -20 275 -25 107 -5 238 -16 290 -24 52 -8 149 -20 215 -26 66 -6 149 -17
185 -24 36 -8 91 -19 122 -25 64 -13 83 -37 54 -69 -22 -24 -137 -76 -210 -95
-198 -52 -400 -46 -700 18 -317 69 -404 106 -527 223 -46 44 -79 84 -79 95 0
24 21 22 190 -11z m3088 -1 l27 0 -1 -147 c-1 -142 0 -148 27 -198 32 -60 49
-178 30 -213 -15 -28 18 -166 53 -227 l26 -44 0 -281 c0 -223 -3 -285 -14
-303 -8 -12 -19 -47 -25 -77 -12 -58 -51 -110 -81 -110 -9 0 -25 9 -35 20 -23
26 -41 25 -99 -4 l-47 -24 -14 22 c-44 66 -61 165 -71 396 -3 74 -12 191 -19
260 -8 69 -15 209 -17 311 l-3 186 42 84 c30 59 47 111 58 174 20 119 32 151
61 174 20 16 31 18 50 10 14 -5 37 -9 52 -9z m760 -367 c17 -20 32 -39 32 -41
0 -2 -12 -18 -26 -35 -29 -34 -29 -38 1 -197 18 -96 13 -159 -18 -260 -18 -57
-21 -94 -22 -290 -1 -139 -6 -241 -14 -267 -11 -42 -58 -91 -71 -76 -4 4 -17
46 -29 92 -18 69 -29 93 -61 128 -32 34 -40 50 -40 81 0 21 -5 65 -11 97 -8
43 -8 95 0 190 14 157 24 400 22 512 l-1 83 32 15 c24 10 53 13 103 9 65 -5
72 -8 103 -41z"/>
<path d="M4230 5178 c-20 -10 -40 -29 -46 -41 -6 -15 -17 -21 -33 -19 -13 1
-29 -5 -37 -15 -8 -11 -13 -13 -14 -5 0 6 -5 12 -12 12 -8 0 -6 -7 5 -17 14
-14 21 -15 36 -6 10 6 24 8 31 3 7 -4 19 -6 27 -3 8 3 13 -2 13 -16 0 -22 -14
-28 -25 -10 -12 19 -33 -23 -25 -50 7 -26 9 -27 80 -20 8 1 20 5 25 9 6 4 22
10 36 13 21 6 25 12 24 37 -2 41 -8 44 -61 41 -42 -2 -45 -1 -42 20 2 16 15
26 47 37 31 10 39 17 30 23 -11 7 -10 9 4 9 10 0 15 5 12 10 -9 15 -36 11 -75
-12z"/>
<path d="M19167 7533 c-9 -87 -9 -382 -1 -450 5 -35 11 -53 20 -53 12 0 14 51
14 285 0 233 -2 285 -14 285 -9 0 -15 -21 -19 -67z"/>
</g>
</svg>
