<?xml version="1.0" standalone="no"?>
<!DOCTYPE svg PUBLIC "-//W3C//DTD SVG 20010904//EN"
 "http://www.w3.org/TR/2001/REC-SVG-20010904/DTD/svg10.dtd">
<svg version="1.0" xmlns="http://www.w3.org/2000/svg"
 width="256.000000pt" height="256.000000pt" viewBox="0 0 256.000000 256.000000"
 preserveAspectRatio="xMidYMid meet">
<metadata>
Created by potrace 1.16, written by Peter Selinger 2001-2019
</metadata>
<g transform="translate(0.000000,256.000000) scale(0.100000,-0.100000)"
fill="#000000" stroke="none">
<path d="M1305 2330 c-26 -11 -533 -447 -544 -469 -5 -9 -61 -201 -125 -428
-94 -334 -121 -417 -141 -437 -23 -23 -25 -33 -25 -106 0 -45 4 -89 9 -98 8
-16 -15 -24 -212 -76 -122 -32 -232 -65 -244 -72 -18 -11 -23 -24 -23 -54 0
-123 306 -271 690 -334 408 -67 887 -38 1231 74 260 85 427 222 367 303 -9 11
-98 38 -253 79 l-240 62 3 104 c4 100 3 106 -20 127 -18 17 -48 92 -111 279
l-86 255 93 86 c51 47 97 85 103 85 8 0 183 -292 183 -305 0 -3 -29 -19 -65
-35 -58 -26 -65 -32 -65 -57 0 -15 4 -34 9 -42 5 -7 62 -26 127 -42 65 -15
120 -32 122 -37 1 -5 16 -30 33 -56 46 -74 121 -96 189 -55 40 25 133 101 203
168 46 44 47 47 47 103 0 43 -7 72 -25 109 -34 66 -57 76 -141 60 -36 -8 -67
-11 -70 -9 -2 3 -41 128 -85 279 -45 150 -87 286 -95 301 -8 15 -27 34 -43 42
-43 23 -710 206 -746 205 -16 0 -39 -4 -50 -9z m-2 -1249 c14 -11 17 -35 17
-152 0 -176 7 -169 -177 -169 -120 0 -135 2 -153 20 -11 11 -20 33 -20 51 0
17 -7 37 -15 45 -8 9 -15 19 -15 24 0 5 7 15 15 24 10 9 15 35 15 73 0 97 13
104 186 101 93 -2 136 -7 147 -17z"/>
</g>
</svg>
